<!DOCTYPE svg PUBLIC "-//W3C//DTD SVG 1.1//EN" "http://www.w3.org/Graphics/SVG/1.1/DTD/svg11.dtd">
<!-- Uploaded to: SVG Repo, www.svgrepo.com, Transformed by: SVG Repo Mixer Tools -->
<svg width="64px" height="64px" viewBox="-12.48 -12.48 48.96 48.96" xmlns="http://www.w3.org/2000/svg" fill="#a1a1a1" stroke="#a1a1a1" stroke-width="0.00024000000000000003">
<g id="SVGRepo_bgCarrier" stroke-width="0"/>
<g id="SVGRepo_tracerCarrier" stroke-linecap="round" stroke-linejoin="round" stroke="#CCCCCC" stroke-width="1.584"/>
<g id="SVGRepo_iconCarrier"> <defs> <style>.cls-1{fill:#5b5252;}.cls-2{fill:#312b2b;}.cls-3{fill:#96e8b6;}</style> </defs> <g id="Icons"> <rect class="cls-1" height="4" rx="2" width="22" x="1" y="2"/> <rect class="cls-2" height="4" rx="2" width="22" x="1" y="18"/> <rect class="cls-1" height="4" rx="2" width="22" x="1" y="10"/> </g> <g data-name="Layer 4" id="Layer_4"> <path class="cls-3" d="M21,1H3A3,3,0,0,0,3,7H21a3,3,0,0,0,0-6Zm0,4H3A1,1,0,0,1,3,3H21a1,1,0,0,1,0,2Z"/> <path class="cls-3" d="M21,17H3a3,3,0,0,0,0,6H21a3,3,0,0,0,0-6Zm0,4H3a1,1,0,0,1,0-2H21a1,1,0,0,1,0,2Z"/> <path class="cls-3" d="M21,9H3a3,3,0,0,0,0,6H21a3,3,0,0,0,0-6Zm0,4H3a1,1,0,0,1,0-2H21a1,1,0,0,1,0,2Z"/> </g> </g>
</svg>